<?xml version="1.0" encoding="utf-8"?>
<svg width="256" height="256" xmlns="http://www.w3.org/2000/svg">
  <defs>
    <linearGradient id="jetbrains-original-a" gradientUnits="userSpaceOnUse" x1="32.64" y1="61.16" x2="82.77" y2="85.54" gradientTransform="matrix(1.420015, 0, 0, 1.3818, -4.014634, 3.274152)">
      <stop offset="0.21" stop-color="#fe2857"/>
      <stop offset="1" stop-color="#293896"/>
    </linearGradient>
    <linearGradient id="jetbrains-original-b" gradientUnits="userSpaceOnUse" x1="17.38" y1="69.86" x2="82.95" y2="21.23" gradientTransform="matrix(1.420015, 0, 0, 1.3818, -4.014634, 3.274152)">
      <stop offset="0" stop-color="#fe2857"/>
      <stop offset="0.01" stop-color="#fe2857"/>
      <stop offset="0.86" stop-color="#ff318c"/>
    </linearGradient>
    <linearGradient id="jetbrains-original-c" gradientUnits="userSpaceOnUse" x1="74.17" y1="21.58" x2="160.27" y2="99.76" gradientTransform="matrix(1.420015, 0, 0, 1.3818, -4.014634, 3.274152)">
      <stop offset="0.02" stop-color="#ff318c"/>
      <stop offset="0.21" stop-color="#fe2857"/>
      <stop offset="0.86" stop-color="#fdb60d"/>
    </linearGradient>
    <linearGradient id="jetbrains-original-d" gradientUnits="userSpaceOnUse" x1="155.46" y1="89.8" x2="55.07" y2="158.9" gradientTransform="matrix(1.420015, 0, 0, 1.3818, -4.014634, 3.274152)">
      <stop offset="0.01" stop-color="#fdb60d"/>
      <stop offset="0.86" stop-color="#fcf84a"/>
    </linearGradient>
  </defs>
  <g>
    <title>background</title>
    <rect fill="none" id="canvas_background" height="402" width="582" y="-1" x="-1"/>
  </g>
  <g>
    <title>Layer 1</title>
    <svg id="svg_2" y="0" x="-2" viewBox="0 0 256 256" height="256" width="256">
      <rect id="svg_3" rx="60" fill="#242938" height="256" width="256"/>
      <path id="svg_4" d="m101.634,182.619c0,0 -7.6792,4.674 5.345,6.011c15.728,2.004 24.044,1.669 41.407,-1.668c0,0 4.674,3.009 11.02,5.344c-39.075,16.696 -88.4971,-1.002 -57.772,-9.687zm-5.0088,-21.705c0,0 -8.3499,6.346 4.6738,7.679c17.028,1.669 30.391,2.004 53.433,-2.667c0,0 3.009,3.341 8.015,5.01c-47.083,14.025 -99.8495,1.333 -66.1218,-10.019l0,-0.003zm92.1698,38.07c0,0 5.676,4.674 -6.346,8.35c-22.376,6.678 -93.8386,8.685 -113.8755,0c-7.0095,-3.009 6.3462,-7.352 10.6852,-8.015c4.3425,-1.002 6.6779,-1.002 6.6779,-1.002c-7.6797,-5.344 -51.0942,11.02 -22.0407,15.729c79.8131,13.027 145.6031,-5.676 124.8961,-15.028l0.003,-0.034zm-83.488,-60.781c0,0 -36.4018,8.685 -13.0277,11.687c10.0187,1.333 29.7207,1.002 48.0887,-0.335c15.028,-1.334 30.09,-4.007 30.09,-4.007c0,0 -5.345,2.338 -9.017,4.674c-37.099,9.693 -108.2303,5.351 -87.8583,-4.668c17.3699,-8.35 31.7243,-7.351 31.7243,-7.351l0,0zm65.116,36.401c37.407,-19.37 20.037,-38.07 8.015,-35.731c-3.009,0.667 -4.342,1.334 -4.342,1.334c0,0 1.001,-2.004 3.34,-2.667c23.709,-8.35 42.413,25.046 -7.679,38.07c0,0 0.335,-0.335 0.666,-1.002l0,-0.004zm-61.444,52.76c36.067,2.339 91.168,-1.334 92.505,-18.369c0,0 -2.667,6.678 -29.72,11.688c-30.722,5.676 -68.796,5.009 -91.1683,1.333c0,0 4.6741,4.007 28.3863,5.344l-0.003,0.004z" fill="#fff"/>
      <path id="svg_5" d="m147.685,28c0,0 20.704,21.0388 -19.702,52.7594c-32.3939,25.7126 -7.351,40.4086 0,57.1016c-19.035,-17.028 -32.7221,-32.059 -23.377,-46.0848c13.725,-20.6934 51.456,-30.7118 43.079,-63.7762zm-10.685,95.842c9.683,11.02 -2.667,21.039 -2.667,21.039c0,0 24.711,-12.686 13.359,-28.387c-10.354,-15.028 -18.368,-22.3756 25.046,-47.4251c0,0 -68.46,17.0279 -35.731,54.7661l-0.007,0.007z" fill="#F58219"/>
    </svg>
    <rect id="svg_6" height="206.999997" width="169.999997" y="22.237497" x="41.499992" stroke-width="1.5" stroke="#242938" fill="#242938"/>
  </g>
  <path d="M 111.806 118.944 L 53.085 70.578 C 40.501 60.344 21.248 67.206 18.431 82.929 C 18.133 84.593 18.045 86.285 18.169 87.968 C 18.784 96.272 24.444 103.408 32.539 106.094 L 32.749 106.094 L 33.302 106.261 L 107.375 128.213 C 107.906 128.404 108.474 128.501 109.044 128.509 C 113.123 128.485 115.646 124.172 113.585 120.745 C 113.146 120.016 112.53 119.403 111.79 118.96 L 111.806 118.944 Z M 111.806 118.944" fill="url(#jetbrains-original-a)" style=""/>
  <path d="M 123.577 39.102 C 123.644 27.514 110.793 20.203 100.448 25.941 C 100.176 26.09 99.909 26.25 99.645 26.416 L 27.936 68.785 C 21.291 72.998 17.6 80.458 18.365 88.139 C 19.948 104.026 38.611 112.286 51.958 103.008 C 52.44 102.674 52.905 102.32 53.357 101.947 L 117.641 50.97 L 118.148 50.56 C 121.588 47.692 123.572 43.509 123.577 39.099 L 123.577 39.102 Z M 123.577 39.102" fill="url(#jetbrains-original-b)" style=""/>
  <path d="M 227.86 130.399 L 119.061 28.435 C 115.046 24.52 109.153 23.053 103.7 24.617 C 98.249 26.183 94.116 30.528 92.929 35.936 C 91.747 41.349 93.706 46.958 98.031 50.549 L 98.225 50.714 L 213.819 145.474 C 216.932 148.016 221.276 148.571 224.958 146.901 C 228.639 145.223 230.991 141.627 230.989 137.671 C 230.982 134.938 229.857 132.321 227.86 130.399 Z M 227.86 130.399" fill="url(#jetbrains-original-c)" style=""/>
  <path d="M 230.997 137.71 C 231.055 129.892 222.394 124.946 215.409 128.806 C 215.071 128.992 214.744 129.198 214.429 129.419 L 82.781 192.009 C 68.125 199.169 66.931 219.083 80.633 227.852 C 88.003 232.57 97.598 232.38 104.763 227.375 L 226.494 146.065 C 229.317 144.172 231.001 141.046 230.994 137.71 L 230.997 137.71 Z M 230.997 137.71" fill="url(#jetbrains-original-d)" style=""/>
  <path d="M 81.189 86.185 L 166.385 86.185 L 166.385 169.087 L 81.189 169.087 L 81.189 86.185 Z M 81.189 86.185" style=""/>
  <path d="M 90.456 153.542 L 122.407 153.542 L 122.407 158.727 L 90.456 158.727 L 90.456 153.542 Z M 89.121 107.559 L 91.493 105.373 C 91.952 106.079 92.725 106.528 93.584 106.58 C 94.488 106.58 95.09 105.958 95.09 104.752 L 95.09 96.577 L 98.756 96.577 L 98.756 104.781 C 98.866 106.117 98.389 107.438 97.446 108.416 C 96.471 109.339 95.153 109.839 93.794 109.798 C 91.948 109.866 90.191 109.024 89.121 107.559 Z M 100.403 96.577 L 111.097 96.577 L 111.097 99.597 L 103.988 99.597 L 103.988 101.578 L 110.37 101.578 L 110.37 104.341 L 104.051 104.341 L 104.051 106.397 L 111.15 106.397 L 111.15 109.434 L 100.355 109.434 L 100.403 96.577 Z M 116.307 99.71 L 112.329 99.71 L 112.329 96.577 L 123.983 96.577 L 123.983 99.71 L 119.997 99.71 L 119.997 109.51 L 116.307 109.51 L 116.307 99.71 Z M 90.604 114.617 L 96.875 114.617 C 98.191 114.512 99.495 114.926 100.495 115.763 C 101.072 116.327 101.384 117.077 101.368 117.868 C 101.386 119.158 100.559 120.316 99.311 120.751 C 100.869 121.033 101.985 122.376 101.947 123.917 C 101.947 126.254 100.09 127.636 96.907 127.636 L 90.604 127.636 L 90.604 114.617 Z M 97.702 118.61 C 97.702 117.897 97.102 117.51 96.025 117.51 L 94.193 117.51 L 94.193 119.772 L 95.97 119.772 C 97.078 119.772 97.728 119.4 97.728 118.657 L 97.702 118.61 Z M 96.423 122.284 L 94.193 122.284 L 94.193 124.675 L 96.494 124.675 C 97.631 124.675 98.257 124.251 98.257 123.491 C 98.225 122.754 97.688 122.287 96.454 122.287 L 96.423 122.284 Z M 103.124 114.617 L 109.02 114.617 C 110.597 114.496 112.155 114.99 113.349 116 C 114.154 116.804 114.584 117.897 114.527 119.012 C 114.581 120.774 113.485 122.376 111.791 123.005 L 114.97 127.636 L 110.704 127.636 L 108.019 123.711 L 106.787 123.711 L 106.787 127.636 L 103.1 127.636 L 103.124 114.617 Z M 108.803 120.835 C 110.042 120.835 110.792 120.242 110.792 119.287 C 110.792 118.254 110.013 117.732 108.795 117.732 L 106.822 117.732 L 106.822 120.866 L 108.803 120.835 Z M 108.803 120.835" fill="#fff" style=""/>
  <path d="M 119.653 114.52 L 123.203 114.52 L 128.889 127.568 L 124.926 127.568 L 123.975 125.231 L 118.819 125.231 L 117.866 127.636 L 114.022 127.636 L 119.653 114.52 Z M 122.889 122.444 L 121.401 118.777 L 119.895 122.444 L 122.889 122.444 Z M 129.466 114.58 L 133.155 114.58 L 133.155 127.521 L 129.466 127.521 L 129.466 114.58 Z M 134.52 114.58 L 137.983 114.58 L 142.774 121.487 L 142.774 114.578 L 146.424 114.578 L 146.424 127.519 L 143.203 127.519 L 138.185 120.427 L 138.185 127.523 L 134.518 127.523 L 134.52 114.58 Z M 147.031 125.601 L 149.076 123.212 C 150.274 124.187 151.776 124.739 153.336 124.773 C 154.349 124.773 154.873 124.434 154.873 123.879 C 154.873 123.309 154.444 123.037 152.617 122.619 C 149.771 121.981 147.602 121.237 147.602 118.573 C 147.602 116.167 149.559 114.428 152.758 114.428 C 154.733 114.357 156.67 114.966 158.226 116.151 L 156.448 118.61 C 155.374 117.821 154.072 117.38 152.726 117.343 C 151.83 117.343 151.392 117.685 151.392 118.17 C 151.392 118.763 151.845 119.028 153.708 119.429 C 156.76 120.075 158.648 121.047 158.648 123.462 C 158.648 126.102 156.503 127.605 153.281 127.605 C 151.017 127.704 148.792 126.993 147.031 125.604 L 147.031 125.601 Z M 147.031 125.601" fill="#fff" style=""/>
</svg>