<svg width="256" height="256" xmlns="http://www.w3.org/2000/svg" xmlns:bx="https://boxy-svg.com">
  <defs>
    <style bx:fonts="Aleo">@import url(https://fonts.googleapis.com/css2?family=Aleo%3Aital%2Cwght%400%2C300%3B0%2C400%3B0%2C700%3B1%2C300%3B1%2C400%3B1%2C700&amp;display=swap);</style>
  </defs>
  <g>
    <title>background</title>
    <rect fill="none" id="canvas_background" height="402" width="582" y="-1" x="-1"></rect>
  </g>
  <g>
    <title>Layer 1</title>
    <svg id="svg_2" y="0" x="-2" viewBox="0 0 256 256" height="256" width="256">
      <rect id="svg_3" rx="60" fill="#242938" height="256" width="256"></rect>
      <path id="svg_4" d="m101.634,182.619c0,0 -7.6792,4.674 5.345,6.011c15.728,2.004 24.044,1.669 41.407,-1.668c0,0 4.674,3.009 11.02,5.344c-39.075,16.696 -88.4971,-1.002 -57.772,-9.687zm-5.0088,-21.705c0,0 -8.3499,6.346 4.6738,7.679c17.028,1.669 30.391,2.004 53.433,-2.667c0,0 3.009,3.341 8.015,5.01c-47.083,14.025 -99.8495,1.333 -66.1218,-10.019l0,-0.003zm92.1698,38.07c0,0 5.676,4.674 -6.346,8.35c-22.376,6.678 -93.8386,8.685 -113.8755,0c-7.0095,-3.009 6.3462,-7.352 10.6852,-8.015c4.3425,-1.002 6.6779,-1.002 6.6779,-1.002c-7.6797,-5.344 -51.0942,11.02 -22.0407,15.729c79.8131,13.027 145.6031,-5.676 124.8961,-15.028l0.003,-0.034zm-83.488,-60.781c0,0 -36.4018,8.685 -13.0277,11.687c10.0187,1.333 29.7207,1.002 48.0887,-0.335c15.028,-1.334 30.09,-4.007 30.09,-4.007c0,0 -5.345,2.338 -9.017,4.674c-37.099,9.693 -108.2303,5.351 -87.8583,-4.668c17.3699,-8.35 31.7243,-7.351 31.7243,-7.351l0,0zm65.116,36.401c37.407,-19.37 20.037,-38.07 8.015,-35.731c-3.009,0.667 -4.342,1.334 -4.342,1.334c0,0 1.001,-2.004 3.34,-2.667c23.709,-8.35 42.413,25.046 -7.679,38.07c0,0 0.335,-0.335 0.666,-1.002l0,-0.004zm-61.444,52.76c36.067,2.339 91.168,-1.334 92.505,-18.369c0,0 -2.667,6.678 -29.72,11.688c-30.722,5.676 -68.796,5.009 -91.1683,1.333c0,0 4.6741,4.007 28.3863,5.344l-0.003,0.004z" fill="#fff"></path>
      <path id="svg_5" d="m147.685,28c0,0 20.704,21.0388 -19.702,52.7594c-32.3939,25.7126 -7.351,40.4086 0,57.1016c-19.035,-17.028 -32.7221,-32.059 -23.377,-46.0848c13.725,-20.6934 51.456,-30.7118 43.079,-63.7762zm-10.685,95.842c9.683,11.02 -2.667,21.039 -2.667,21.039c0,0 24.711,-12.686 13.359,-28.387c-10.354,-15.028 -18.368,-22.3756 25.046,-47.4251c0,0 -68.46,17.0279 -35.731,54.7661l-0.007,0.007z" fill="#F58219"></path>
    </svg>
    <rect id="svg_6" height="206.999997" width="169.999997" y="22.237497" x="41.499992" stroke-width="1.5" stroke="#242938" fill="#242938"></rect>
  </g>
  <text style="fill: rgb(51, 51, 51); font-family: Aleo; font-size: 19.9px; white-space: pre;" transform="matrix(3.20711, 0, 0, 3.520035, -279.827515, -355.183594)"><tspan x="93.809" y="143.283" style="fill: rgb(255, 255, 255);">Test</tspan><tspan style="fill: rgb(255, 0, 0);">N</tspan><tspan style="fill: rgb(255, 234, 0);">G</tspan></text>
</svg>