<?xml version="1.0" encoding="utf-8"?>
<svg width="256" height="256" xmlns="http://www.w3.org/2000/svg">
  <g>
    <title>background</title>
    <rect fill="none" id="canvas_background" height="402" width="582" y="-1" x="-1"/>
  </g>
  <g>
    <title>Layer 1</title>
    <svg id="svg_2" y="0" x="-2" viewBox="0 0 256 256" height="256" width="256">
      <rect id="svg_3" rx="60" fill="#242938" height="256" width="256"/>
      <path id="svg_4" d="m101.634,182.619c0,0 -7.6792,4.674 5.345,6.011c15.728,2.004 24.044,1.669 41.407,-1.668c0,0 4.674,3.009 11.02,5.344c-39.075,16.696 -88.4971,-1.002 -57.772,-9.687zm-5.0088,-21.705c0,0 -8.3499,6.346 4.6738,7.679c17.028,1.669 30.391,2.004 53.433,-2.667c0,0 3.009,3.341 8.015,5.01c-47.083,14.025 -99.8495,1.333 -66.1218,-10.019l0,-0.003zm92.1698,38.07c0,0 5.676,4.674 -6.346,8.35c-22.376,6.678 -93.8386,8.685 -113.8755,0c-7.0095,-3.009 6.3462,-7.352 10.6852,-8.015c4.3425,-1.002 6.6779,-1.002 6.6779,-1.002c-7.6797,-5.344 -51.0942,11.02 -22.0407,15.729c79.8131,13.027 145.6031,-5.676 124.8961,-15.028l0.003,-0.034zm-83.488,-60.781c0,0 -36.4018,8.685 -13.0277,11.687c10.0187,1.333 29.7207,1.002 48.0887,-0.335c15.028,-1.334 30.09,-4.007 30.09,-4.007c0,0 -5.345,2.338 -9.017,4.674c-37.099,9.693 -108.2303,5.351 -87.8583,-4.668c17.3699,-8.35 31.7243,-7.351 31.7243,-7.351l0,0zm65.116,36.401c37.407,-19.37 20.037,-38.07 8.015,-35.731c-3.009,0.667 -4.342,1.334 -4.342,1.334c0,0 1.001,-2.004 3.34,-2.667c23.709,-8.35 42.413,25.046 -7.679,38.07c0,0 0.335,-0.335 0.666,-1.002l0,-0.004zm-61.444,52.76c36.067,2.339 91.168,-1.334 92.505,-18.369c0,0 -2.667,6.678 -29.72,11.688c-30.722,5.676 -68.796,5.009 -91.1683,1.333c0,0 4.6741,4.007 28.3863,5.344l-0.003,0.004z" fill="#fff"/>
      <path id="svg_5" d="m147.685,28c0,0 20.704,21.0388 -19.702,52.7594c-32.3939,25.7126 -7.351,40.4086 0,57.1016c-19.035,-17.028 -32.7221,-32.059 -23.377,-46.0848c13.725,-20.6934 51.456,-30.7118 43.079,-63.7762zm-10.685,95.842c9.683,11.02 -2.667,21.039 -2.667,21.039c0,0 24.711,-12.686 13.359,-28.387c-10.354,-15.028 -18.368,-22.3756 25.046,-47.4251c0,0 -68.46,17.0279 -35.731,54.7661l-0.007,0.007z" fill="#F58219"/>
    </svg>
    <rect id="svg_6" height="206.999997" width="169.999997" y="22.237497" x="41.499992" stroke-width="1.5" stroke="#242938" fill="#242938"/>
  </g>
  <path fill="#F34F29" d="M 222.175 119.157 L 135.453 33.781 C 130.461 28.864 122.361 28.864 117.363 33.781 L 99.356 51.512 L 122.2 74.002 C 127.51 72.236 133.596 73.42 137.827 77.586 C 142.081 81.778 143.273 87.82 141.436 93.064 L 163.453 114.742 C 168.779 112.934 174.926 114.101 179.178 118.297 C 185.125 124.147 185.125 133.632 179.178 139.486 C 173.234 145.341 163.593 145.341 157.649 139.486 C 153.305 135.208 151.999 128.781 154.337 123.188 L 133.806 102.976 L 133.802 156.173 C 135.292 156.894 136.651 157.851 137.829 159.004 C 143.773 164.855 143.773 174.336 137.829 180.199 C 131.883 186.051 122.246 186.051 116.305 180.199 C 110.361 174.338 110.361 164.857 116.305 159.004 C 117.73 157.6 119.424 156.489 121.289 155.736 L 121.289 102.047 C 119.421 101.296 117.728 100.184 116.305 98.776 C 111.802 94.347 110.719 87.841 113.027 82.393 L 90.507 60.222 L 31.043 118.762 C 26.047 123.68 26.047 131.656 31.043 136.575 L 117.768 221.95 C 122.761 226.868 130.858 226.868 135.861 221.95 L 222.178 136.973 C 227.172 132.051 227.171 124.076 222.175 119.157 Z" style=""/>
</svg>