<?xml version="1.0" encoding="utf-8"?>
<svg width="256" height="256" xmlns="http://www.w3.org/2000/svg">
  <g>
    <title>background</title>
    <rect fill="none" id="canvas_background" height="402" width="582" y="-1" x="-1"/>
  </g>
  <g>
    <title>Layer 1</title>
    <svg id="svg_2" y="0" x="-2" viewBox="0 0 256 256" height="256" width="256">
      <rect id="svg_3" rx="60" fill="#242938" height="256" width="256"/>
      <path id="svg_4" d="m101.634,182.619c0,0 -7.6792,4.674 5.345,6.011c15.728,2.004 24.044,1.669 41.407,-1.668c0,0 4.674,3.009 11.02,5.344c-39.075,16.696 -88.4971,-1.002 -57.772,-9.687zm-5.0088,-21.705c0,0 -8.3499,6.346 4.6738,7.679c17.028,1.669 30.391,2.004 53.433,-2.667c0,0 3.009,3.341 8.015,5.01c-47.083,14.025 -99.8495,1.333 -66.1218,-10.019l0,-0.003zm92.1698,38.07c0,0 5.676,4.674 -6.346,8.35c-22.376,6.678 -93.8386,8.685 -113.8755,0c-7.0095,-3.009 6.3462,-7.352 10.6852,-8.015c4.3425,-1.002 6.6779,-1.002 6.6779,-1.002c-7.6797,-5.344 -51.0942,11.02 -22.0407,15.729c79.8131,13.027 145.6031,-5.676 124.8961,-15.028l0.003,-0.034zm-83.488,-60.781c0,0 -36.4018,8.685 -13.0277,11.687c10.0187,1.333 29.7207,1.002 48.0887,-0.335c15.028,-1.334 30.09,-4.007 30.09,-4.007c0,0 -5.345,2.338 -9.017,4.674c-37.099,9.693 -108.2303,5.351 -87.8583,-4.668c17.3699,-8.35 31.7243,-7.351 31.7243,-7.351l0,0zm65.116,36.401c37.407,-19.37 20.037,-38.07 8.015,-35.731c-3.009,0.667 -4.342,1.334 -4.342,1.334c0,0 1.001,-2.004 3.34,-2.667c23.709,-8.35 42.413,25.046 -7.679,38.07c0,0 0.335,-0.335 0.666,-1.002l0,-0.004zm-61.444,52.76c36.067,2.339 91.168,-1.334 92.505,-18.369c0,0 -2.667,6.678 -29.72,11.688c-30.722,5.676 -68.796,5.009 -91.1683,1.333c0,0 4.6741,4.007 28.3863,5.344l-0.003,0.004z" fill="#fff"/>
      <path id="svg_5" d="m147.685,28c0,0 20.704,21.0388 -19.702,52.7594c-32.3939,25.7126 -7.351,40.4086 0,57.1016c-19.035,-17.028 -32.7221,-32.059 -23.377,-46.0848c13.725,-20.6934 51.456,-30.7118 43.079,-63.7762zm-10.685,95.842c9.683,11.02 -2.667,21.039 -2.667,21.039c0,0 24.711,-12.686 13.359,-28.387c-10.354,-15.028 -18.368,-22.3756 25.046,-47.4251c0,0 -68.46,17.0279 -35.731,54.7661l-0.007,0.007z" fill="#F58219"/>
    </svg>
    <rect id="svg_6" height="206.999997" width="169.999997" y="22.237497" x="41.499992" stroke-width="1.5" stroke="#242938" fill="#242938"/>
  </g>
  <path fill="#fff" d="M 92.728 36.307 C 21.548 60.825 3.791 152.658 60.766 201.606 C 71.939 211.204 85.156 218.167 99.425 221.971 C 115.818 226.171 132.993 226.355 149.474 222.508 C 164.404 219.179 178.208 212.056 189.533 201.838 C 201.32 190.879 209.874 176.937 214.279 161.511 C 219.064 144.737 219.917 127.096 216.769 109.943 L 124.713 109.943 L 124.713 147.859 L 178.026 147.859 C 175.873 160.078 168.803 170.9 158.445 177.835 C 151.935 182.114 144.596 184.99 136.9 186.281 C 129.181 187.706 121.264 187.706 113.546 186.281 C 105.721 184.678 98.321 181.472 91.815 176.868 C 81.362 169.521 73.514 159.083 69.389 147.045 C 65.196 134.781 65.196 121.485 69.389 109.221 C 72.325 100.624 77.178 92.798 83.587 86.324 C 98.539 70.944 120.892 65.148 141.509 71.305 C 149.409 73.711 156.634 77.919 162.605 83.59 C 168.617 77.652 174.618 71.699 180.608 65.73 C 183.702 62.521 187.073 59.465 190.12 56.178 C 181.003 47.755 170.303 41.201 158.631 36.89 C 137.375 29.227 114.118 29.021 92.728 36.307 Z" style=""/>
  <path fill="#e33629" d="M 92.728 36.307 C 114.117 29.017 137.373 29.216 158.631 36.875 C 170.305 41.215 181 47.801 190.105 56.255 C 187.012 59.541 183.748 62.613 180.593 65.807 C 174.592 71.755 168.596 77.682 162.605 83.59 C 156.634 77.919 149.409 73.711 141.509 71.305 C 120.9 65.127 98.54 70.899 83.572 86.262 C 77.162 92.737 72.309 100.563 69.374 109.159 L 37.312 84.512 C 48.788 61.916 68.657 44.63 92.728 36.307 Z" style=""/>
  <path fill="#f8bd00" d="M 28.805 108.929 C 30.526 100.449 33.388 92.236 37.312 84.512 L 69.374 109.221 C 65.181 121.485 65.181 134.781 69.374 147.045 C 58.691 155.234 48.004 163.466 37.312 171.738 C 27.492 152.332 24.498 130.221 28.805 108.929 Z" style=""/>
  <path fill="#587dbd" d="M 124.713 109.927 L 216.769 109.927 C 219.917 127.081 219.064 144.721 214.279 161.495 C 209.874 176.921 201.32 190.864 189.533 201.822 C 179.186 193.806 168.792 185.851 158.445 177.835 C 168.811 170.894 175.88 160.058 178.026 147.828 L 124.713 147.828 C 124.697 135.205 124.713 122.566 124.713 109.927 Z" style=""/>
  <path fill="#319f43" d="M 37.296 171.738 C 47.988 163.549 58.675 155.317 69.358 147.045 C 73.491 159.087 81.351 169.526 91.815 176.868 C 98.341 181.45 105.758 184.63 113.592 186.205 C 121.31 187.63 129.227 187.63 136.947 186.205 C 144.643 184.913 151.982 182.037 158.491 177.758 C 168.838 185.775 179.232 193.729 189.579 201.746 C 178.256 211.969 164.452 219.097 149.521 222.431 C 133.04 226.278 115.864 226.094 99.471 221.894 C 86.506 218.457 74.396 212.397 63.898 204.095 C 52.789 195.336 43.715 184.299 37.296 171.738 Z" style=""/>
</svg>