<?xml version="1.0" encoding="utf-8"?>
<svg width="256" height="256" xmlns="http://www.w3.org/2000/svg">
  <g>
    <title>background</title>
    <rect fill="none" id="canvas_background" height="402" width="582" y="-1" x="-1"/>
  </g>
  <g>
    <title>Layer 1</title>
    <svg id="svg_2" y="0" x="-2" viewBox="0 0 256 256" height="256" width="256">
      <rect id="svg_3" rx="60" fill="#242938" height="256" width="256"/>
      <path id="svg_4" d="m101.634,182.619c0,0 -7.6792,4.674 5.345,6.011c15.728,2.004 24.044,1.669 41.407,-1.668c0,0 4.674,3.009 11.02,5.344c-39.075,16.696 -88.4971,-1.002 -57.772,-9.687zm-5.0088,-21.705c0,0 -8.3499,6.346 4.6738,7.679c17.028,1.669 30.391,2.004 53.433,-2.667c0,0 3.009,3.341 8.015,5.01c-47.083,14.025 -99.8495,1.333 -66.1218,-10.019l0,-0.003zm92.1698,38.07c0,0 5.676,4.674 -6.346,8.35c-22.376,6.678 -93.8386,8.685 -113.8755,0c-7.0095,-3.009 6.3462,-7.352 10.6852,-8.015c4.3425,-1.002 6.6779,-1.002 6.6779,-1.002c-7.6797,-5.344 -51.0942,11.02 -22.0407,15.729c79.8131,13.027 145.6031,-5.676 124.8961,-15.028l0.003,-0.034zm-83.488,-60.781c0,0 -36.4018,8.685 -13.0277,11.687c10.0187,1.333 29.7207,1.002 48.0887,-0.335c15.028,-1.334 30.09,-4.007 30.09,-4.007c0,0 -5.345,2.338 -9.017,4.674c-37.099,9.693 -108.2303,5.351 -87.8583,-4.668c17.3699,-8.35 31.7243,-7.351 31.7243,-7.351l0,0zm65.116,36.401c37.407,-19.37 20.037,-38.07 8.015,-35.731c-3.009,0.667 -4.342,1.334 -4.342,1.334c0,0 1.001,-2.004 3.34,-2.667c23.709,-8.35 42.413,25.046 -7.679,38.07c0,0 0.335,-0.335 0.666,-1.002l0,-0.004zm-61.444,52.76c36.067,2.339 91.168,-1.334 92.505,-18.369c0,0 -2.667,6.678 -29.72,11.688c-30.722,5.676 -68.796,5.009 -91.1683,1.333c0,0 4.6741,4.007 28.3863,5.344l-0.003,0.004z" fill="#fff"/>
      <path id="svg_5" d="m147.685,28c0,0 20.704,21.0388 -19.702,52.7594c-32.3939,25.7126 -7.351,40.4086 0,57.1016c-19.035,-17.028 -32.7221,-32.059 -23.377,-46.0848c13.725,-20.6934 51.456,-30.7118 43.079,-63.7762zm-10.685,95.842c9.683,11.02 -2.667,21.039 -2.667,21.039c0,0 24.711,-12.686 13.359,-28.387c-10.354,-15.028 -18.368,-22.3756 25.046,-47.4251c0,0 -68.46,17.0279 -35.731,54.7661l-0.007,0.007z" fill="#F58219"/>
    </svg>
    <rect id="svg_6" height="206.999997" width="169.999997" y="22.237497" x="41.499992" stroke-width="1.5" stroke="#242938" fill="#242938"/>
  </g>
  <path d="M 208.95 129.691 C 223.882 138.24 233.916 154.035 233.947 172.121 C 234 199.345 211.367 221.455 183.403 221.499 C 155.44 221.55 132.728 199.515 132.677 172.291 C 132.644 154.205 142.62 138.379 157.524 129.772 L 172.074 153.713 C 172.437 154.312 172.23 155.085 171.639 155.479 C 166.134 159.124 162.526 165.273 162.539 172.241 C 162.559 183.411 171.88 192.454 183.35 192.428 C 194.824 192.408 204.105 183.339 204.085 172.171 C 204.073 165.205 200.445 159.065 194.926 155.44 C 194.338 155.048 194.124 154.275 194.485 153.674 L 208.95 129.691 Z M 208.95 129.691" fill="#128dff" style=""/>
  <path d="M 97.193 129.4 C 89.638 125.28 81.126 123.122 72.473 123.135 C 44.503 123.135 21.838 145.208 21.838 172.432 C 21.838 199.654 44.503 221.729 72.473 221.729 C 100.574 221.729 123.797 198.503 123.09 171.165 L 94.588 171.165 C 93.837 171.165 93.248 171.786 93.241 172.513 C 93.17 183.404 83.836 192.656 72.473 192.656 C 60.995 192.656 51.7 183.6 51.7 172.43 C 51.7 161.262 60.995 152.206 72.473 152.206 C 75.473 152.206 78.33 152.827 80.907 153.946 C 81.542 154.218 82.294 154.011 82.643 153.434 L 97.193 129.4 Z M 97.193 129.4" fill="#8bda67" style=""/>
  <path d="M 101.286 121.666 C 86.375 113.091 76.367 97.278 76.367 79.193 C 76.367 51.969 99.039 29.896 127.002 29.896 C 154.966 29.896 177.637 51.969 177.637 79.193 C 177.637 97.278 167.63 113.091 152.719 121.666 L 138.207 97.709 C 137.844 97.11 138.051 96.337 138.648 95.944 C 144.154 92.305 147.774 86.16 147.774 79.193 C 147.774 68.024 138.472 58.969 127 58.969 C 115.529 58.969 106.227 68.024 106.227 79.194 C 106.227 86.16 109.847 92.305 115.354 95.945 C 115.951 96.337 116.157 97.108 115.794 97.711 L 101.286 121.666 Z M 101.286 121.666" fill="#ff2a44" style=""/>
</svg>