<svg xmlns="http://www.w3.org/2000/svg" width="88" height="96" viewBox="0 0 88 96" role="img" aria-label="Gister">
  <style>svg{font-family:-apple-system,BlinkMacSystemFont,Segoe UI,Helvetica,Arial,sans-serif;color:#777}.gauge{stroke-linecap:round;fill:none}.gauge-base,.gauge-arc{stroke:currentColor;stroke-width:6}.gauge-base{stroke-opacity:.2}.achievement{display:flex;margin:4px 0}.achievement .icon{margin:0 4px;width:44px;height:44px}.achievement .text{font-size:12px;color:#666}.achievement .title{font-size:14px;color:#58A6FF}.achievement .gauge.info{color:#58A6FF}.achievement .value{background-color:#58A6FF26}.achievement.x .title{color:#666}.achievement.x .gauge.info{color:#B0B0B0}.achievement.x .value{background-color:#B0B0B026}.achievement.b .title{color:#9D8FFF}.achievement.b .gauge.info{color:#9E91FF}.achievement.b .value{background-color:#9E91FF26}.achievement.a .title{color:#D79533}.achievement.a .gauge.info{color:#E7BD69}.achievement.a .value{background-color:#E7BD6926}.achievement.s .title{color:#EB355E}.achievement.s .gauge.info{color:#EB355E}.achievement.s .value{background-color:#EB355E26}.achievement.secret .title{color:#FF76CD}.achievement.secret .gauge.info{color:#FF79D1}.achievement.secret .value{background-color:#FF79D126}.achievement .gh,.achievement .value{border:1px solid currentColor;border-radius:16px;font-size:10px;padding:0 5px;white-space:nowrap}.achievement .value-wrapper{margin-bottom:-50px;margin-top:36px;display:none}.achievement .value{margin-left:46px}.achievements.compact{display:flex;flex-wrap:wrap}.achievements.compact .achievement{flex-direction:column-reverse;align-items:center;width:80px}.achievements.compact .info{width:100%}.achievements.compact .achievement .title{margin-bottom:2px;text-transform:capitalize;text-align:center}.achievements.compact .achievement .title .prefix{min-height:13px;font-size:10px;display:block;margin-bottom:-.25rem}.achievements.compact .achievement .value-wrapper{display:flex}.achievements.compact .achievement .text,.achievements.compact .achievement .gh{display:none}</style>
  <foreignObject width="100%" height="100%">
    <div xmlns="http://www.w3.org/1999/xhtml">
      <section class="achievements compact">
    <div class="achievement x">
      <div class="icon">
        <svg xmlns="http://www.w3.org/2000/svg" viewBox="0 0 60 60" height="44" width="44">
          <defs>
            <mask id="mask">
              <circle class="gauge-base" r="25" cx="28" cy="28" fill="white"></circle>
            </mask>
          </defs>
          <svg xmlns="http://www.w3.org/2000/svg" class="gauge info">
            <circle class="gauge-base" r="25" cx="28" cy="28"></circle>
            <circle class="gauge-arc" transform="rotate(-90 28 28)" r="25" cx="28" cy="28" stroke-dasharray="0 155"></circle>
          </svg>
          <svg xmlns="http://www.w3.org/2000/svg" mask="url(#mask)"><g stroke-width="2" fill="none" fill-rule="evenodd"><path d="M20 48.875v-12.75c0-1.33.773-2.131 2.385-2.125h26.23c1.612-.006 2.385.795 2.385 2.125v12.75C51 50.198 50.227 51 48.615 51h-26.23C20.773 51 20 50.198 20 48.875zM37 40.505h9M37 44.492h6" stroke="#7A7A7A" stroke-linecap="round" stroke-linejoin="round"/><path stroke="#B0B0B0" stroke-linecap="round" stroke-linejoin="round" d="M14 30h-4M16 35h-3M47 10H5M42 15H24M19 15h-9M16 25h-3M42 20h-2M42 20h-2M42 25h-2M16 20h-3"/><path stroke="#7A7A7A" stroke-linecap="round" stroke-linejoin="round" d="M31.974 25H24"/><path d="M22 20h12a2 2 0 012 2v6a2 2 0 01-2 2H22a2 2 0 01-2-2v-6a2 2 0 012-2z" stroke="#7A7A7A"/><path d="M5 33V7a2 2 0 012-2h38a2 2 0 012 2v23" stroke="#B0B0B0" stroke-linecap="round"/><path d="M5 30v8c0 1.105.892 2 1.993 2H16" stroke="#B0B0B0" stroke-linecap="round"/><g stroke="#7A7A7A" stroke-linecap="round"><path d="M26.432 37.933v7.07M26.432 37.933v9.07M24.432 40.433h7.07M24.432 40.433h8.07M24.432 44.433h7.07M24.432 44.433h8.07M30.432 37.933v9.07"/></g></g></svg>
        </svg>
      </div>
      <div class="info">
        <div class="title">
          <span class="prefix"></span> Gister
          <div class="value-wrapper">
            <div class="value">0</div>
          </div>
        </div>
        <div class="text">Published 0 gists</div>
      </div>
    </div>
  </section>
    </div>
  </foreignObject>
</svg>
