<svg xmlns="http://www.w3.org/2000/svg" width="88" height="96" viewBox="0 0 88 96" role="img" aria-label="Explorer">
  <style>svg{font-family:-apple-system,BlinkMacSystemFont,Segoe UI,Helvetica,Arial,sans-serif;color:#777}.gauge{stroke-linecap:round;fill:none}.gauge-base,.gauge-arc{stroke:currentColor;stroke-width:6}.gauge-base{stroke-opacity:.2}.achievement{display:flex;margin:4px 0}.achievement .icon{margin:0 4px;width:44px;height:44px}.achievement .text{font-size:12px;color:#666}.achievement .title{font-size:14px;color:#58A6FF}.achievement .gauge.info{color:#58A6FF}.achievement .value{background-color:#58A6FF26}.achievement.x .title{color:#666}.achievement.x .gauge.info{color:#B0B0B0}.achievement.x .value{background-color:#B0B0B026}.achievement.b .title{color:#9D8FFF}.achievement.b .gauge.info{color:#9E91FF}.achievement.b .value{background-color:#9E91FF26}.achievement.a .title{color:#D79533}.achievement.a .gauge.info{color:#E7BD69}.achievement.a .value{background-color:#E7BD6926}.achievement.s .title{color:#EB355E}.achievement.s .gauge.info{color:#EB355E}.achievement.s .value{background-color:#EB355E26}.achievement.secret .title{color:#FF76CD}.achievement.secret .gauge.info{color:#FF79D1}.achievement.secret .value{background-color:#FF79D126}.achievement .gh,.achievement .value{border:1px solid currentColor;border-radius:16px;font-size:10px;padding:0 5px;white-space:nowrap}.achievement .value-wrapper{margin-bottom:-50px;margin-top:36px;display:none}.achievement .value{margin-left:46px}.achievements.compact{display:flex;flex-wrap:wrap}.achievements.compact .achievement{flex-direction:column-reverse;align-items:center;width:80px}.achievements.compact .info{width:100%}.achievements.compact .achievement .title{margin-bottom:2px;text-transform:capitalize;text-align:center}.achievements.compact .achievement .title .prefix{min-height:13px;font-size:10px;display:block;margin-bottom:-.25rem}.achievements.compact .achievement .value-wrapper{display:flex}.achievements.compact .achievement .text,.achievements.compact .achievement .gh{display:none}</style>
  <foreignObject width="100%" height="100%">
    <div xmlns="http://www.w3.org/1999/xhtml">
      <section class="achievements compact">
    <div class="achievement secret">
      <div class="icon">
        <svg xmlns="http://www.w3.org/2000/svg" viewBox="0 0 60 60" height="44" width="44">
          <defs>
            <mask id="mask">
              <circle class="gauge-base" r="25" cx="28" cy="28" fill="white"></circle>
            </mask>
          </defs>
          <svg xmlns="http://www.w3.org/2000/svg" class="gauge info">
            <circle class="gauge-base" r="25" cx="28" cy="28"></circle>
            <circle class="gauge-arc" transform="rotate(-90 28 28)" r="25" cx="28" cy="28" stroke-dasharray="155 155"></circle>
          </svg>
          <svg xmlns="http://www.w3.org/2000/svg" mask="url(#mask)"><g transform="translate(3 4)" fill="none" fill-rule="evenodd"><path d="M10 37.5l.049.073a2 2 0 002.506.705l24.391-11.324a2 2 0 00.854-2.874l-2.668-4.27a2 2 0 00-2.865-.562L10.463 34.947A1.869 1.869 0 0010 37.5zM33.028 28.592l-4.033-6.58" stroke="#FF48BD" stroke-width="2" stroke-linecap="round" stroke-linejoin="round"/><path stroke="#FF48BD" stroke-width="2" stroke-linejoin="round" d="M15.52 37.004l-2.499-3.979"/><path stroke="#FF48BD" stroke-width="2" stroke-linecap="round" stroke-linejoin="round" d="M25.008 48.011l.013-15.002M17.984 47.038l6.996-14.035M32.005 47.029l-6.987-14.016"/><path d="M2.032 17.015A23.999 23.999 0 001 24c0 9.3 5.29 17.365 13.025 21.35m22-.027C43.734 41.33 49 33.28 49 24a24 24 0 00-1.025-6.96M34.022 1.754A23.932 23.932 0 0025 0c-2.429 0-4.774.36-6.983 1.032" stroke="#FF92D8" stroke-width="2" stroke-linecap="round" stroke-linejoin="round"/><path d="M40.64 8.472c-1.102-2.224-.935-4.764 1.382-6.465-.922-.087-2.209.326-3.004.784a6.024 6.024 0 00-2.674 7.229c.94 2.618 3.982 4.864 7.66 3.64 1.292-.429 2.615-1.508 2.996-2.665-1.8.625-5.258-.3-6.36-2.523zM21.013 6.015c-.22-.802-3.018-1.295-4.998-.919M4.998 8.006C2.25 9.22.808 11.146 1.011 12.009" stroke="#FF48BD" stroke-width="2" stroke-linecap="round" stroke-linejoin="round"/><circle stroke="#FF92D8" stroke-width="2" cx="11" cy="9" r="6"/><path d="M.994 12.022c.351 1.38 5.069 1.25 10.713-.355 5.644-1.603 9.654-4.273 9.303-5.653" stroke="#FF48BD" stroke-width="2" stroke-linecap="round" stroke-linejoin="round"/><path d="M26.978 10.105c.318 1.123.573 1.373 1.71 1.679-1.135.314-1.388.566-1.698 1.69-.318-1.122-.573-1.373-1.711-1.679 1.135-.314 1.39-.566 1.7-1.69" fill="#FF92D8"/><path d="M26.978 10.105c.318 1.123.573 1.373 1.71 1.679-1.135.314-1.388.566-1.698 1.69-.318-1.122-.573-1.373-1.711-1.679 1.135-.314 1.39-.566 1.7-1.69z" stroke="#FF92D8" stroke-width="2" stroke-linecap="round" stroke-linejoin="round"/><path d="M9.929 22.737c.317 1.121.573 1.372 1.71 1.678-1.135.314-1.389.566-1.699 1.69-.318-1.121-.573-1.372-1.71-1.679 1.134-.313 1.389-.566 1.699-1.69" fill="#FF92D8"/><path d="M9.929 22.737c.317 1.121.573 1.372 1.71 1.678-1.135.314-1.389.566-1.699 1.69-.318-1.121-.573-1.372-1.71-1.679 1.134-.313 1.389-.566 1.699-1.69z" stroke="#FF92D8" stroke-width="2" stroke-linecap="round" stroke-linejoin="round"/><path d="M38.912 33.684c.318 1.122.573 1.373 1.711 1.679-1.136.313-1.39.565-1.7 1.69-.317-1.123-.573-1.372-1.71-1.68 1.136-.313 1.389-.565 1.7-1.689" fill="#FF92D8"/><path d="M38.912 33.684c.318 1.122.573 1.373 1.711 1.679-1.136.313-1.39.565-1.7 1.69-.317-1.123-.573-1.372-1.71-1.68 1.136-.313 1.389-.565 1.7-1.689z" stroke="#FF92D8" stroke-width="2" stroke-linecap="round" stroke-linejoin="round"/></g></svg>
        </svg>
      </div>
      <div class="info">
        <div class="title">
          <span class="prefix"></span> Explorer
          <div class="value-wrapper">
            <div class="value">☆</div>
          </div>
        </div>
        <div class="text">Starred a topic on GitHub Explore</div>
      </div>
    </div>
  </section>
    </div>
  </foreignObject>
</svg>
