<svg xmlns="http://www.w3.org/2000/svg" width="88" height="96" viewBox="0 0 88 96" role="img" aria-label="Infographile">
  <style>svg{font-family:-apple-system,BlinkMacSystemFont,Segoe UI,Helvetica,Arial,sans-serif;color:#777}.gauge{stroke-linecap:round;fill:none}.gauge-base,.gauge-arc{stroke:currentColor;stroke-width:6}.gauge-base{stroke-opacity:.2}.achievement{display:flex;margin:4px 0}.achievement .icon{margin:0 4px;width:44px;height:44px}.achievement .text{font-size:12px;color:#666}.achievement .title{font-size:14px;color:#58A6FF}.achievement .gauge.info{color:#58A6FF}.achievement .value{background-color:#58A6FF26}.achievement.x .title{color:#666}.achievement.x .gauge.info{color:#B0B0B0}.achievement.x .value{background-color:#B0B0B026}.achievement.b .title{color:#9D8FFF}.achievement.b .gauge.info{color:#9E91FF}.achievement.b .value{background-color:#9E91FF26}.achievement.a .title{color:#D79533}.achievement.a .gauge.info{color:#E7BD69}.achievement.a .value{background-color:#E7BD6926}.achievement.s .title{color:#EB355E}.achievement.s .gauge.info{color:#EB355E}.achievement.s .value{background-color:#EB355E26}.achievement.secret .title{color:#FF76CD}.achievement.secret .gauge.info{color:#FF79D1}.achievement.secret .value{background-color:#FF79D126}.achievement .gh,.achievement .value{border:1px solid currentColor;border-radius:16px;font-size:10px;padding:0 5px;white-space:nowrap}.achievement .value-wrapper{margin-bottom:-50px;margin-top:36px;display:none}.achievement .value{margin-left:46px}.achievements.compact{display:flex;flex-wrap:wrap}.achievements.compact .achievement{flex-direction:column-reverse;align-items:center;width:80px}.achievements.compact .info{width:100%}.achievements.compact .achievement .title{margin-bottom:2px;text-transform:capitalize;text-align:center}.achievements.compact .achievement .title .prefix{min-height:13px;font-size:10px;display:block;margin-bottom:-.25rem}.achievements.compact .achievement .value-wrapper{display:flex}.achievements.compact .achievement .text,.achievements.compact .achievement .gh{display:none}</style>
  <foreignObject width="100%" height="100%">
    <div xmlns="http://www.w3.org/1999/xhtml">
      <section class="achievements compact">
    <div class="achievement secret">
      <div class="icon">
        <svg xmlns="http://www.w3.org/2000/svg" viewBox="0 0 60 60" height="44" width="44">
          <defs>
            <mask id="mask">
              <circle class="gauge-base" r="25" cx="28" cy="28" fill="white"></circle>
            </mask>
          </defs>
          <svg xmlns="http://www.w3.org/2000/svg" class="gauge info">
            <circle class="gauge-base" r="25" cx="28" cy="28"></circle>
            <circle class="gauge-arc" transform="rotate(-90 28 28)" r="25" cx="28" cy="28" stroke-dasharray="155 155"></circle>
          </svg>
          <svg xmlns="http://www.w3.org/2000/svg" mask="url(#mask)"><g stroke-linejoin="round" stroke-width="2" fill="none" fill-rule="evenodd"><g stroke="#FF92D8" stroke-linecap="round"><path d="M22 31h20M22 36h10"/></g><path d="M44.05 36.013a8 8 0 110 16 8 8 0 010-16z" stroke="#FF48BD" stroke-linecap="round"/><path d="M32 43H7c-1.228 0-2-.84-2-2V7c0-1.16.772-2 2-2h7.075M47 24.04V32" stroke="#FF92D8" stroke-linecap="round"/><path stroke="#FF48BD" stroke-linecap="round" d="M47.015 42.017l-4 3.994-2.001-1.995"/><path stroke="#FF92D8" d="M11 31h5v5h-5z"/><path d="M11 14a2 2 0 012-2m28 12a2 2 0 01-2 2h-1m-5 0h-4m-6 0h-4m-5 0h-1a2 2 0 01-2-2m0-4v-2" stroke="#FF92D8" stroke-linecap="round"/><path d="M18 18V7c0-1.246.649-2 1.73-2h28.54C49.351 5 50 5.754 50 7v11c0 1.246-.649 2-1.73 2H19.73c-1.081 0-1.73-.754-1.73-2z" stroke="#FF48BD" stroke-linecap="round"/><path stroke="#FF48BD" stroke-linecap="round" d="M22 13h4l2-3 3 5 2-2h3.052l2.982-4 3.002 4H46"/></g></svg>
        </svg>
      </div>
      <div class="info">
        <div class="title">
          <span class="prefix"></span> Infographile
          <div class="value-wrapper">
            <div class="value">☆</div>
          </div>
        </div>
        <div class="text">Fervent supporter of metrics</div>
      </div>
    </div>
  </section>
    </div>
  </foreignObject>
</svg>
