<svg xmlns="http://www.w3.org/2000/svg" width="88" height="96" viewBox="0 0 88 96" role="img" aria-label="Maintainer">
  <style>svg{font-family:-apple-system,BlinkMacSystemFont,Segoe UI,Helvetica,Arial,sans-serif;color:#777}.gauge{stroke-linecap:round;fill:none}.gauge-base,.gauge-arc{stroke:currentColor;stroke-width:6}.gauge-base{stroke-opacity:.2}.achievement{display:flex;margin:4px 0}.achievement .icon{margin:0 4px;width:44px;height:44px}.achievement .text{font-size:12px;color:#666}.achievement .title{font-size:14px;color:#58A6FF}.achievement .gauge.info{color:#58A6FF}.achievement .value{background-color:#58A6FF26}.achievement.x .title{color:#666}.achievement.x .gauge.info{color:#B0B0B0}.achievement.x .value{background-color:#B0B0B026}.achievement.b .title{color:#9D8FFF}.achievement.b .gauge.info{color:#9E91FF}.achievement.b .value{background-color:#9E91FF26}.achievement.a .title{color:#D79533}.achievement.a .gauge.info{color:#E7BD69}.achievement.a .value{background-color:#E7BD6926}.achievement.s .title{color:#EB355E}.achievement.s .gauge.info{color:#EB355E}.achievement.s .value{background-color:#EB355E26}.achievement.secret .title{color:#FF76CD}.achievement.secret .gauge.info{color:#FF79D1}.achievement.secret .value{background-color:#FF79D126}.achievement .gh,.achievement .value{border:1px solid currentColor;border-radius:16px;font-size:10px;padding:0 5px;white-space:nowrap}.achievement .value-wrapper{margin-bottom:-50px;margin-top:36px;display:none}.achievement .value{margin-left:46px}.achievements.compact{display:flex;flex-wrap:wrap}.achievements.compact .achievement{flex-direction:column-reverse;align-items:center;width:80px}.achievements.compact .info{width:100%}.achievements.compact .achievement .title{margin-bottom:2px;text-transform:capitalize;text-align:center}.achievements.compact .achievement .title .prefix{min-height:13px;font-size:10px;display:block;margin-bottom:-.25rem}.achievements.compact .achievement .value-wrapper{display:flex}.achievements.compact .achievement .text,.achievements.compact .achievement .gh{display:none}</style>
  <foreignObject width="100%" height="100%">
    <div xmlns="http://www.w3.org/1999/xhtml">
      <section class="achievements compact">
    <div class="achievement c">
      <div class="icon">
        <svg xmlns="http://www.w3.org/2000/svg" viewBox="0 0 60 60" height="44" width="44">
          <defs>
            <mask id="mask">
              <circle class="gauge-base" r="25" cx="28" cy="28" fill="white"></circle>
            </mask>
          </defs>
          <svg xmlns="http://www.w3.org/2000/svg" class="gauge info">
            <circle class="gauge-base" r="25" cx="28" cy="28"></circle>
            <circle class="gauge-arc" transform="rotate(-90 28 28)" r="25" cx="28" cy="28" stroke-dasharray="0.15515515515515516 155"></circle>
          </svg>
          <svg xmlns="http://www.w3.org/2000/svg" mask="url(#mask)"><g transform="translate(4 4)" fill="none" fill-rule="evenodd"><path d="M39 15h.96l4.038 3-.02-3H45a2 2 0 002-2V3a2 2 0 00-2-2H31a2 2 0 00-2 2v4.035" stroke="#79B8FF" stroke-width="2" stroke-linecap="round" stroke-linejoin="round"/><path stroke="#2088FF" stroke-width="2" stroke-linecap="round" stroke-linejoin="round" d="M36 5.014l-3 3 3 3M40 5.014l3 3-3 3"/><path d="M6 37a1 1 0 110 2 1 1 0 010-2m7 0a1 1 0 110 2 1 1 0 010-2m-2.448 1a1 1 0 11-2 0 1 1 0 012 0z" fill="#2088FF"/><path d="M1.724 15.05A23.934 23.934 0 000 24c0 .686.029 1.366.085 2.037m19.92 21.632c1.3.218 2.634.331 3.995.331a23.92 23.92 0 009.036-1.76m13.207-13.21A23.932 23.932 0 0048 24c0-1.363-.114-2.7-.332-4M25.064.022a23.932 23.932 0 00-10.073 1.725" stroke="#79B8FF" stroke-width="2" stroke-linecap="round"/><path d="M19 42.062V43a2 2 0 01-2 2H9.04l-4.038 3 .02-3H3a2 2 0 01-2-2V33a2 2 0 012-2h4.045" stroke="#79B8FF" stroke-width="2" stroke-linecap="round" stroke-linejoin="round"/><path d="M6 0a6 6 0 110 12A6 6 0 016 0z" stroke="#2088FF" stroke-width="2" stroke-linecap="round" stroke-linejoin="round"/><path stroke="#2088FF" stroke-width="2" stroke-linecap="round" d="M6 3v6M3 6h6"/><path d="M42 36a6 6 0 110 12 6 6 0 010-12z" stroke="#2088FF" stroke-width="2" stroke-linecap="round" stroke-linejoin="round"/><path stroke="#2088FF" stroke-width="2" stroke-linecap="round" stroke-linejoin="round" d="M44.338 40.663l-3.336 3.331-1.692-1.686M31 31c-.716-2.865-3.578-5-7-5-3.423 0-6.287 2.14-7 5"/><path d="M24 16a5 5 0 110 10 5 5 0 010-10z" stroke="#2088FF" stroke-width="2" stroke-linecap="round"/><circle stroke="#2088FF" stroke-width="2" cx="24" cy="24" r="14"/></g></svg>
        </svg>
      </div>
      <div class="info">
        <div class="title">
          <span class="prefix"></span> Maintainer
          <div class="value-wrapper">
            <div class="value">2</div>
          </div>
        </div>
        <div class="text">Maintaining a repository with 2 stars</div>
      </div>
    </div>
  </section>
    </div>
  </foreignObject>
</svg>
